<?xml version="1.0" encoding="UTF-8" standalone="no"?>
<svg
   width="260"
   height="80"
   viewBox="0 0 260 80"
   fill="none"
   version="1.1"
   id="svg4"
   sodipodi:docname="get_iod.svg"
   inkscape:version="1.4.2 (ebf0e940d0, 2025-05-08)"
   xmlns:inkscape="http://www.inkscape.org/namespaces/inkscape"
   xmlns:sodipodi="http://sodipodi.sourceforge.net/DTD/sodipodi-0.dtd"
   xmlns="http://www.w3.org/2000/svg"
   xmlns:svg="http://www.w3.org/2000/svg">
  <defs
     id="defs4">
    <rect
       x="78.55587"
       y="21.772038"
       width="163.5845"
       height="37.65974"
       id="rect5" />
    <rect
       x="82.674904"
       y="15.593487"
       width="160.64233"
       height="54.13588"
       id="rect4" />
    <rect
       x="545.27075"
       y="129.38628"
       width="170.53992"
       height="37.730087"
       id="rect5878" />
    <rect
       x="79.480141"
       y="243.98555"
       width="98.107262"
       height="19.632467"
       id="rect5297" />
    <rect
       x="545.27075"
       y="129.38628"
       width="141.00364"
       height="40.573864"
       id="rect5878-3" />
    <rect
       x="79.480141"
       y="243.98555"
       width="97.836517"
       height="25.859533"
       id="rect5297-6" />
  </defs>
  <sodipodi:namedview
     inkscape:zoom="3.398855"
     inkscape:cx="128.27849"
     inkscape:cy="60.167321"
     inkscape:window-width="1920"
     inkscape:window-height="1051"
     inkscape:window-x="0"
     inkscape:window-y="0"
     inkscape:window-maximized="1"
     inkscape:current-layer="svg4"
     pagecolor="#b0b0b0"
     id="namedview1"
     bordercolor="#eeeeee"
     borderopacity="1"
     inkscape:showpageshadow="0"
     inkscape:pageopacity="0"
     inkscape:pagecheckerboard="0"
     inkscape:deskcolor="#505050" />
  <rect
     width="260"
     height="80"
     rx="10"
     fill="#1D5128"
     id="rect"
     style="fill:#0F766E;fill-opacity:1;stroke-width:1.99236"
     x="0"
     y="0" />
  <path
     style="fill:#fff;fill-opacity:1;stroke:#00D3FF;stroke-width:1;stroke-dasharray:none;stroke-opacity:1"
     d="m 25.434722,47.497788 c -0.595964,1.259779 -1.508398,2.4373 -2.255293,3.614883 -1.462964,2.306572 -2.924515,4.614611 -4.375769,6.928525 -0.552371,0.88071 -1.119129,1.75271 -1.667514,2.635852 -0.195775,0.315283 -0.564514,0.728628 -0.476789,1.129361 0.09253,0.422695 0.495151,0.521971 0.867809,0.52717 0.878242,0.0123 1.757516,2.9e-4 2.635852,2.9e-4 h 11.221198 11.748369 c 4.785935,0 9.348477,-0.04029 13.4805,-2.825524 8.53312,-5.751852 9.542272,-18.135544 2.334612,-25.340437 -1.237763,-1.237289 -2.73921,-2.409404 -4.367984,-3.087712 0.559439,-1.182861 1.409439,-2.280087 2.104904,-3.388952 1.498681,-2.389527 3.019913,-4.76491 4.518603,-7.154456 l 1.664378,-2.635852 c 0.195363,-0.311517 0.55213,-0.732213 0.442971,-1.129302 -0.117847,-0.428679 -0.529662,-0.451451 -0.89861,-0.452209 H 59.776107 48.630219 36.80654 c -1.832972,0 -3.748762,-0.160944 -5.572944,0.01278 -2.856239,0.272016 -5.610237,1.230477 -7.982866,2.851151 -8.241035,5.6292 -9.279957,17.415129 -2.723888,24.699547 1.336304,1.48476 3.049194,2.841046 4.90788,3.614882 M 44.412856,17.524386 c -0.556781,1.290439 -1.508701,2.499444 -2.255526,3.690193 -1.368366,2.181753 -2.721323,4.373251 -4.094518,6.551975 -0.552267,0.876233 -1.106022,1.752654 -1.647059,2.635852 -0.175622,0.286687 -0.522164,0.694239 -0.422747,1.053991 0.121764,0.44064 0.573359,0.522406 0.964154,0.52723 0.978705,0.01205 1.958305,2.9e-4 2.937093,2.9e-4 h 12.576779 c -0.761825,1.43106 -1.735478,2.76624 -2.592442,4.142053 -0.268613,0.431244 -0.885275,1.086409 -0.402701,1.564019 0.606871,0.600625 1.141161,-0.462961 1.409624,-0.886229 0.984905,-1.552838 1.978718,-3.102451 2.9411,-4.669223 2.035628,0.586429 4.020814,2.470794 5.317724,4.066743 4.848931,5.966981 4.588131,15.41237 -1.250981,20.697483 -1.649264,1.492783 -3.587056,2.735178 -5.723564,3.399818 -2.579035,0.802302 -5.162472,0.755017 -7.832246,0.755017 h -8.735967 c 0.652523,-1.395957 1.65623,-2.690716 2.481225,-3.991433 1.462319,-2.305552 2.881055,-4.641396 4.37199,-6.928525 0.55036,-0.844268 1.086388,-1.701339 1.613182,-2.560542 0.216519,-0.353145 0.441631,-0.767329 0.03255,-1.089904 -0.67841,-0.534939 -1.269405,0.808487 -1.538511,1.240524 -1.098928,1.76428 -2.235761,3.5052 -3.331075,5.271704 -1.158046,1.86768 -2.360285,3.707641 -3.52214,5.572944 -0.41426,0.665077 -0.930872,1.970946 -1.583952,2.407831 -0.28993,0.193947 -0.898884,0.0774 -1.234428,0.0774 H 29.878015 18.430887 c 0.732976,-1.936651 2.349734,-3.822054 3.460253,-5.572944 2.33684,-3.68436 4.625324,-7.400615 6.984658,-11.070578 0.915168,-1.423551 1.796012,-2.869149 2.711163,-4.292673 0.239627,-0.372737 0.923652,-1.108589 0.787791,-1.581162 -0.415315,-1.444617 -1.67157,0.746847 -1.917442,1.129301 -1.443096,2.244745 -2.872799,4.50406 -4.269488,6.777905 -1.721363,-0.495693 -3.2984,-1.91508 -4.519707,-3.16308 -5.664495,-5.788293 -5.737933,-15.965394 0.377712,-21.525835 1.60242,-1.456945 3.427918,-2.684989 5.497576,-3.375001 2.663818,-0.888102 5.361578,-0.855145 8.133486,-0.855145 h 8.735967 m 17.170693,0 -1.954054,3.163022 -4.038851,6.401355 -1.617189,2.560542 -0.763214,1.05225 -1.191069,0.0774 -3.087713,-0.07531 H 37.710261 l 2.104906,-3.464263 3.991433,-6.401354 1.458665,-2.334612 0.736132,-0.933589 1.423861,-0.04544 h 3.163022 10.995269 m -26.35852,19.806545 c -1.699222,0.881494 -2.732564,3.257084 -3.055752,5.045773 -0.09333,0.516548 -0.364954,1.679737 0.202164,1.998972 0.319238,0.179702 0.769514,0.10971 1.121457,0.10971 h 2.409922 8.811276 2.560542 c 0.373184,0 0.869555,0.07931 1.196767,-0.139929 0.543224,-0.363986 0.255203,-1.432121 0.164799,-1.968753 -0.322449,-1.91401 -1.393287,-3.934568 -3.018387,-5.045773 0.574106,-0.574106 1.556444,-1.223415 1.905122,-1.958062 0.247222,-0.520882 -0.226136,-1.053762 -0.775471,-0.838812 -0.834133,0.326385 -1.348142,1.807381 -2.227342,1.931157 -0.317459,0.0447 -0.793045,-0.298498 -1.086301,-0.409732 -0.720945,-0.273459 -1.487702,-0.472361 -2.259301,-0.525252 -1.057179,-0.07247 -2.146558,-8.89e-4 -3.163023,0.309958 -0.509958,0.155952 -1.065625,0.533974 -1.581511,0.611892 -0.546413,0.08253 -1.566669,-1.241111 -1.958061,-1.603359 -0.29421,-0.272302 -0.740023,-0.553262 -1.096993,-0.196294 -0.318467,0.318469 -0.124174,0.739851 0.126156,1.021682 0.529811,0.596469 1.138846,1.117903 1.723937,1.656822 m 12.275539,5.874184 h -14.15829 c 0.03194,-3.859889 4.008374,-6.814861 7.681625,-6.46388 3.369342,0.321943 6.207068,3.052621 6.476665,6.46388 M 37.183091,39.859047 c -1.189425,0.156464 -0.953964,1.95273 0.22593,1.824469 1.188254,-0.129174 0.959366,-1.98039 -0.22593,-1.824469 m 6.551974,2.91e-4 c -1.219451,0.23666 -0.842133,2.084883 0.376493,1.809825 1.097432,-0.247703 0.737181,-2.025958 -0.376493,-1.809825 z"
     id="path1" />
 <text x="85" y="32" 
        font-family="-apple-system, BlinkMacSystemFont, 'Segoe UI', Roboto, Helvetica, Arial, sans-serif" 
        font-weight="500" 
        font-size="16" 
        fill="#A7F3D0">
    Get it on
  </text>
  
  <text x="84" y="62" 
        font-family="-apple-system, BlinkMacSystemFont, 'Segoe UI', Roboto, Helvetica, Arial, sans-serif" 
        font-weight="500" 
        font-size="28" 
        fill="#FFFFFF">
    IzzyOnDroid
  </text>
</svg>
