<?xml version="1.0" encoding="UTF-8" standalone="no"?>
<svg
   width="260"
   height="80"
   viewBox="0 0 260 80"
   fill="none"
   version="1.1"
   id="svg4"
   sodipodi:docname="get_github.svg"
   inkscape:version="1.4.2 (ebf0e940d0, 2025-05-08)"
   xmlns:inkscape="http://www.inkscape.org/namespaces/inkscape"
   xmlns:sodipodi="http://sodipodi.sourceforge.net/DTD/sodipodi-0.dtd"
   xmlns="http://www.w3.org/2000/svg"
   xmlns:svg="http://www.w3.org/2000/svg">
  <defs
     id="defs4">
    <rect
       x="78.55587"
       y="21.772038"
       width="163.5845"
       height="37.65974"
       id="rect5" />
    <rect
       x="82.674904"
       y="15.593487"
       width="160.64233"
       height="54.13588"
       id="rect4" />
    <rect
       x="545.27075"
       y="129.38628"
       width="170.53992"
       height="37.730087"
       id="rect5878" />
    <rect
       x="79.480141"
       y="243.98555"
       width="98.107262"
       height="19.632467"
       id="rect5297" />
    <rect
       x="545.27075"
       y="129.38628"
       width="132.63117"
       height="41.711378"
       id="rect5878-3" />
    <rect
       x="79.480141"
       y="243.98555"
       width="97.836517"
       height="25.859533"
       id="rect5297-6" />
  </defs>
  <sodipodi:namedview
     inkscape:zoom="3.398855"
     inkscape:cx="137.39921"
     inkscape:cy="37.218416"
     inkscape:window-width="1920"
     inkscape:window-height="1051"
     inkscape:window-x="0"
     inkscape:window-y="0"
     inkscape:window-maximized="1"
     inkscape:current-layer="svg4"
     pagecolor="#b0b0b0"
     id="namedview1"
     bordercolor="#eeeeee"
     borderopacity="1"
     inkscape:showpageshadow="0"
     inkscape:pageopacity="0"
     inkscape:pagecheckerboard="0"
     inkscape:deskcolor="#505050" />
  <rect
     width="260"
     height="80"
     rx="10"
     id="rect"
     style="fill:#0F766E;fill-opacity:1;stroke-width:1.99236"
     x="0"
     y="0" />
  <g
     id="g9"
     transform="matrix(2.4337627,0,0,2.4337627,14.783119,14.87576)"
     style="fill:none;fill-opacity:1;stroke:#FFF;stroke-opacity:1">
    <path
       class="st4"
       d="M 8.3,19.5 C 8.4,18.6 8.4,17.8 8.5,17.1 8.7,15.6 9,14.6 9.2,14 9.4,13.6 9.1,13.1 8.7,13.1 5.6,12.6 4.7,10 4.7,10 4,7.8 4.7,5.8 5.2,5 5.4,4.6 5.5,4.2 5.4,3.8 5.4,2.7 5.5,2 5.7,1.5 5.9,1.1 6.3,0.9 6.7,1.1 7.7,1.5 8.3,1.9 8.7,2.3 9.1,2.6 9.6,2.6 10,2.4 10.8,2 12.1,2.1 12.1,2.1 v 0 c 0,0 1.3,0 2.1,0.3 0.4,0.2 1,0.1 1.3,-0.2 0.4,-0.4 1,-0.8 2,-1.2 0.4,-0.1 0.9,0 1,0.4 0.2,0.4 0.4,1.2 0.2,2.3 0,0.4 0,0.8 0.2,1.2 0.5,0.9 1.273945,2.9563275 0.473945,5.156328 0,0 -1.062967,2.407263 -3.131998,2.938965 -0.209786,0.05391 0.115731,1.995821 0.475989,3.73423 0.257312,1.241647 0.245218,2.574625 0.264446,2.800998"
       id="path3"
       sodipodi:nodetypes="ccccccccccscccscccccssc"
       style="stroke-width:1.8px;fill:none;stroke:#000;stroke-linecap:round;stroke-linejoin:round;fill-opacity:1;stroke-opacity:1" />
    <path
       class="st4"
       d="m 8.5,17.1 c 0,0 -3.1,0.9 -4.1,-1.8 0,0 -0.4,-2.8 -3.4,-2.5"
       id="path4"
       style="stroke-width:1.8px;fill:none;stroke:#000;stroke-linecap:round;stroke-linejoin:round;fill-opacity:1;stroke-opacity:1" />
  </g>
<text x="85" y="32" 
        font-family="-apple-system, BlinkMacSystemFont, 'Segoe UI', Roboto, Helvetica, Arial, sans-serif" 
        font-weight="400" 
        font-size="16" 
        fill="#A7F3D0">
    Get it on
  </text>
  
  <text x="84" y="62" 
        font-family="-apple-system, BlinkMacSystemFont, 'Segoe UI', Roboto, Helvetica, Arial, sans-serif" 
        font-weight="500" 
        font-size="28" 
        fill="#FFFFFF">
    GitHub
  </text>
</svg>
